<svg width="574" height="400" viewBox="0 0 574 400" fill="none" xmlns="http://www.w3.org/2000/svg">
<g clip-path="url(#clip0_41_39)">
<path d="M114.366 399.5C177.528 399.5 228.731 395.615 228.731 390.822C228.731 386.029 177.528 382.144 114.366 382.144C51.2033 382.144 0 386.029 0 390.822C0 395.615 51.2033 399.5 114.366 399.5Z" fill="#E6E6E6"/>
<path d="M87.419 89.0311C107.322 80.5733 132.112 85.9321 156.321 89.6513C156.547 85.1473 159.277 79.6658 156.417 76.5236C152.942 72.7061 153.262 68.6949 155.353 64.6607C160.7 54.3446 153.039 43.3677 145.303 34.2405C143.559 32.1879 141.356 30.5751 138.871 29.5332C136.386 28.4913 133.691 28.0496 131.003 28.244L116.673 29.2667C113.186 29.5155 109.858 30.8224 107.135 33.0125C104.412 35.2026 102.423 38.1714 101.434 41.5218V41.5218C98.0127 46.1712 96.1813 50.8078 97.3343 55.4202C92.2091 58.9195 91.348 63.1436 93.6511 67.9054C95.604 70.9037 95.5832 73.8222 93.5623 76.6599C90.9081 80.2778 88.8753 84.3119 87.5471 88.5968L87.419 89.0311Z" fill="#2F2E41"/>
<path d="M560.398 345.429H154.749C151.142 345.429 147.682 343.997 145.131 341.449C142.581 338.9 141.148 335.444 141.148 331.84C288.195 314.765 432.479 314.765 574 331.84C574 335.444 572.567 338.9 570.016 341.449C567.465 343.997 564.006 345.429 560.398 345.429Z" fill="#2F2E41"/>
<path d="M574 332.639L141.148 331.84L191.314 247.506L191.554 247.106V61.2443C191.553 58.9883 191.998 56.7544 192.862 54.6701C193.726 52.5859 194.993 50.6921 196.589 49.0968C198.186 47.5016 200.081 46.2363 202.168 45.373C204.254 44.5098 206.49 44.0656 208.748 44.0658H503.999C506.257 44.0656 508.493 44.5098 510.58 45.373C512.666 46.2363 514.561 47.5016 516.158 49.0968C517.755 50.6921 519.021 52.5859 519.885 54.6701C520.749 56.7544 521.194 58.9883 521.194 61.2443V248.385L574 332.639Z" fill="#3F3D56"/>
<path d="M208.356 56.0564C206.871 56.058 205.447 56.6481 204.397 57.6971C203.347 58.7461 202.757 60.1684 202.755 61.652V231.119C202.757 232.602 203.347 234.025 204.397 235.074C205.447 236.123 206.871 236.713 208.356 236.714H506.792C508.277 236.713 509.7 236.123 510.75 235.074C511.8 234.025 512.391 232.602 512.393 231.119V61.652C512.391 60.1685 511.8 58.7462 510.75 57.6972C509.7 56.6482 508.277 56.0581 506.792 56.0564H208.356Z" fill="white"/>
<path d="M209.606 259.097C209.147 259.098 208.698 259.23 208.312 259.477C207.926 259.724 207.618 260.077 207.426 260.493L191.968 294.066C191.799 294.432 191.726 294.833 191.754 295.235C191.782 295.636 191.91 296.024 192.127 296.362C192.344 296.701 192.643 296.98 192.996 297.173C193.349 297.366 193.746 297.467 194.148 297.467H519.216C519.625 297.467 520.028 297.362 520.385 297.163C520.742 296.964 521.043 296.677 521.258 296.329C521.473 295.982 521.595 295.585 521.614 295.176C521.632 294.768 521.545 294.362 521.362 293.996L504.56 260.422C504.362 260.023 504.056 259.688 503.677 259.453C503.297 259.219 502.86 259.096 502.414 259.097H209.606Z" fill="#2F2E41"/>
<path d="M356.374 53.2586C358.362 53.2586 359.974 51.648 359.974 49.6614C359.974 47.6747 358.362 46.0642 356.374 46.0642C354.385 46.0642 352.773 47.6747 352.773 49.6614C352.773 51.648 354.385 53.2586 356.374 53.2586Z" fill="white"/>
<path d="M324.422 303.862C323.894 303.862 323.382 304.036 322.963 304.357C322.544 304.678 322.242 305.127 322.105 305.636L318.227 320.025C318.131 320.38 318.119 320.753 318.19 321.114C318.262 321.475 318.415 321.815 318.639 322.107C318.864 322.399 319.152 322.636 319.482 322.799C319.813 322.962 320.176 323.047 320.545 323.047H394.285C394.667 323.047 395.044 322.955 395.384 322.78C395.724 322.605 396.018 322.351 396.24 322.039C396.461 321.728 396.606 321.368 396.66 320.99C396.714 320.611 396.677 320.225 396.552 319.864L391.567 305.475C391.404 305.004 391.097 304.596 390.691 304.307C390.284 304.017 389.798 303.862 389.299 303.862H324.422Z" fill="#2F2E41"/>
<path d="M521.193 244.309V247.506H191.314L191.562 247.107V244.309H521.193Z" fill="#2F2E41"/>
<path d="M511.993 112.412C542.924 112.412 567.999 87.3597 567.999 56.4561C567.999 25.5524 542.924 0.5 511.993 0.5C481.061 0.5 455.986 25.5524 455.986 56.4561C455.986 87.3597 481.061 112.412 511.993 112.412Z" fill="#FF6600"/>
<path d="M535.195 80.8369H488.79C487.941 80.8361 487.128 80.4989 486.528 79.8995C485.928 79.3 485.59 78.4872 485.589 77.6394V49.6614C485.59 48.8136 485.928 48.0009 486.528 47.4014C487.128 46.802 487.941 46.4648 488.79 46.4639H535.195C536.044 46.4648 536.857 46.802 537.457 47.4014C538.057 48.0009 538.395 48.8136 538.396 49.6614V77.6394C538.395 78.4872 538.057 79.3 537.457 79.8995C536.857 80.4989 536.044 80.8361 535.195 80.8369ZM488.79 49.6614V77.6394H535.198L535.195 49.6614L488.79 49.6614Z" fill="white"/>
<path d="M526.394 49.6614H497.591V36.8714C497.591 27.6076 503.648 20.884 511.992 20.884C520.337 20.884 526.394 27.6076 526.394 36.8714L526.394 49.6614ZM500.791 46.4639H523.194V36.8714C523.194 29.341 518.588 24.0815 511.993 24.0815C505.397 24.0815 500.791 29.341 500.791 36.8714L500.791 46.4639Z" fill="white"/>
<path d="M511.993 66.0485C513.76 66.0485 515.193 64.6169 515.193 62.851C515.193 61.0851 513.76 59.6535 511.993 59.6535C510.225 59.6535 508.792 61.0851 508.792 62.851C508.792 64.6169 510.225 66.0485 511.993 66.0485Z" fill="white"/>
<path d="M408.071 203H303.929C303.417 202.998 302.927 202.272 302.566 200.981C302.204 199.69 302.001 197.94 302 196.115V103.885C302.001 102.06 302.204 100.31 302.566 99.019C302.927 97.7283 303.417 97.0021 303.929 97H408.071C408.583 97.0021 409.073 97.7283 409.434 99.019C409.796 100.31 409.999 102.06 410 103.885V196.115C409.999 197.94 409.796 199.69 409.434 200.981C409.073 202.272 408.583 202.998 408.071 203V203ZM303.929 99.7542C303.622 99.7553 303.328 100.191 303.111 100.965C302.894 101.74 302.772 102.79 302.771 103.885V196.115C302.772 197.21 302.894 198.26 303.111 199.035C303.328 199.809 303.622 200.245 303.929 200.246H408.071C408.378 200.245 408.672 199.809 408.889 199.035C409.106 198.26 409.228 197.21 409.229 196.115V103.885C409.228 102.79 409.106 101.74 408.889 100.965C408.672 100.191 408.378 99.7553 408.071 99.7541L303.929 99.7542Z" fill="#E6E6E6"/>
<path d="M356.398 146.765C366.007 146.765 373.797 138.983 373.797 129.383C373.797 119.782 366.007 112 356.398 112C346.79 112 339 119.782 339 129.383C339 138.983 346.79 146.765 356.398 146.765Z" fill="#E6E6E6"/>
<path d="M313.814 154C313.576 153.999 313.34 154.076 313.12 154.227C312.9 154.377 312.7 154.598 312.531 154.877C312.363 155.156 312.229 155.487 312.138 155.851C312.047 156.215 312 156.606 312 157C312 157.394 312.047 157.785 312.138 158.149C312.229 158.513 312.363 158.844 312.531 159.123C312.7 159.402 312.9 159.623 313.12 159.773C313.34 159.923 313.576 160.001 313.814 160H399.189C399.669 160 400.13 159.684 400.47 159.121C400.809 158.559 401 157.796 401 157C401 156.204 400.809 155.441 400.47 154.879C400.13 154.316 399.669 154 399.189 154H313.814Z" fill="#E6E6E6"/>
<path d="M330.468 168C329.813 168 329.186 168.316 328.723 168.879C328.26 169.441 328 170.204 328 171C328 171.796 328.26 172.559 328.723 173.121C329.186 173.684 329.813 174 330.468 174H380.532C381.187 174 381.814 173.684 382.277 173.121C382.74 172.559 383 171.796 383 171C383 170.204 382.74 169.441 382.277 168.879C381.814 168.316 381.187 168 380.532 168H330.468Z" fill="#E6E6E6"/>
<path d="M190.746 151.158L148.11 173.805L147.57 154.933C161.486 152.612 174.726 148.571 186.968 141.992L191.427 130.985C191.913 129.786 192.703 128.733 193.719 127.931C194.735 127.128 195.942 126.604 197.223 126.409C198.503 126.213 199.812 126.354 201.021 126.817C202.231 127.28 203.299 128.049 204.121 129.048V129.048C205.323 130.511 205.925 132.376 205.803 134.265C205.68 136.154 204.844 137.927 203.463 139.223L190.746 151.158Z" fill="#FFB8B8"/>
<path d="M86.5692 281.912C86.2581 280.773 86.1921 279.58 86.3754 278.413C86.5587 277.246 86.9872 276.131 87.6327 275.141L96.9986 260.78C99.2139 257.384 102.613 254.93 106.537 253.896C110.46 252.862 114.628 253.321 118.232 255.184V255.184C114.296 261.878 114.845 267.75 119.592 272.853C112.223 276.447 105.412 281.086 99.3706 286.626C98.2677 287.377 97.0011 287.854 95.6763 288.018C94.3515 288.181 93.0069 288.025 91.7545 287.564C90.502 287.103 89.378 286.349 88.476 285.366C87.5741 284.383 86.9203 283.199 86.5692 281.912V281.912Z" fill="#2F2E41"/>
<path d="M192.688 263.135C191.271 265.495 189.27 267.452 186.878 268.817C184.486 270.182 181.783 270.91 179.029 270.931L116.808 271.402L114.109 255.765L141.634 247.676L118.427 229.883L143.792 200.226L189.864 243.128C192.557 245.636 194.307 248.991 194.821 252.633C195.335 256.274 194.582 259.982 192.688 263.135V263.135Z" fill="#2F2E41"/>
<path d="M107.093 370.077H92.5213C79.4379 280.476 66.1203 190.626 105.474 157.09L151.888 164.639L145.951 204.001L120.046 233.657L107.093 370.077Z" fill="#2F2E41"/>
<path d="M119.902 390.374C118.762 390.684 117.568 390.75 116.4 390.567C115.232 390.384 114.116 389.956 113.125 389.311L97.3031 387.187C93.9032 384.974 91.4474 381.578 90.412 377.658C89.3767 373.738 89.8357 369.574 91.6999 365.973C98.4003 369.905 104.278 369.356 109.386 364.613C112.995 371.894 118.941 371.45 124.62 377.584C125.372 378.685 125.849 379.951 126.013 381.274C126.176 382.598 126.02 383.941 125.559 385.193C125.097 386.444 124.343 387.567 123.359 388.468C122.375 389.369 121.19 390.023 119.902 390.374V390.374Z" fill="#2F2E41"/>
<path d="M141.634 97.2376L114.649 90.7671C119.131 81.6016 119.5 71.4031 117.347 60.5715L135.697 60.0323C136.272 73.5017 138.011 86.0856 141.634 97.2376Z" fill="#FFB8B8"/>
<path d="M149.05 180.874C129.406 194.247 115.526 181.331 104.934 161.403C106.406 149.209 104.023 134.616 99.6093 118.76C97.6463 111.766 98.3792 104.292 101.663 97.8113C104.947 91.3311 110.543 86.3164 117.347 83.7574V83.7574L140.554 93.4631C160.26 109.511 164.138 126.893 156.745 145.227L149.05 180.874Z" fill="#FF6600"/>
<path d="M92.5213 110.718L70.9334 122.041L109.252 144.688L114.584 157.828C114.939 158.705 115.113 159.645 115.093 160.591C115.073 161.537 114.861 162.469 114.469 163.331C114.077 164.192 113.513 164.965 112.813 165.602C112.112 166.238 111.289 166.726 110.393 167.034V167.034C109.375 167.385 108.29 167.495 107.222 167.357C106.154 167.219 105.133 166.835 104.238 166.237C103.344 165.638 102.6 164.841 102.065 163.907C101.53 162.974 101.219 161.929 101.156 160.855L100.617 151.698L51.9145 135.64C50.2736 135.099 48.7774 134.192 47.5393 132.988C46.3012 131.784 45.3536 130.314 44.7683 128.69V128.69C43.9152 126.322 43.8717 123.738 44.6448 121.343C45.4179 118.948 46.9639 116.877 49.0408 115.453L88.2037 88.6103L92.5213 110.718Z" fill="#FFB8B8"/>
<path d="M114.109 112.875C105.106 108.932 96.9186 113.215 86.5847 116.649L84.9656 88.0711C95.2267 82.607 105.01 81.1337 114.109 85.375L114.109 112.875Z" fill="#FF6600"/>
<path d="M124.879 74.1879C134.395 74.1879 142.108 66.4813 142.108 56.9748C142.108 47.4682 134.395 39.7616 124.879 39.7616C115.364 39.7616 107.651 47.4682 107.651 56.9748C107.651 66.4813 115.364 74.1879 124.879 74.1879Z" fill="#FFB8B8"/>
<path d="M145.491 54.8029C128.433 56.4721 115.435 53.6848 107.127 45.7487V39.3575H144.043L145.491 54.8029Z" fill="#2F2E41"/>
</g>
<defs>
<clipPath id="clip0_41_39">
<rect width="574" height="399" fill="white" transform="translate(0 0.5)"/>
</clipPath>
</defs>
</svg>
